<?xml version="1.0" encoding="iso-8859-1"?>
<!-- Generator: Adobe Illustrator 19.0.0, SVG Export Plug-In . SVG Version: 6.00 Build 0)  -->
<svg version="1.1" id="Layer_1" xmlns="http://www.w3.org/2000/svg" xmlns:xlink="http://www.w3.org/1999/xlink" x="0px" y="0px"
	 viewBox="0 0 512 512" style="enable-background:new 0 0 512 512;" xml:space="preserve">
<path style="fill:#E9EBEF;" d="M256,499.2C121.899,499.2,12.8,390.101,12.8,256S121.899,12.8,256,12.8S499.2,121.899,499.2,256
	S390.101,499.2,256,499.2z"/>
<g>
	<path style="fill:#573A32;" d="M256,0C114.62,0,0,114.62,0,256s114.62,256,256,256c141.389,0,256-114.62,256-256S397.389,0,256,0z
		 M256,486.4C128.956,486.4,25.6,383.044,25.6,256S128.956,25.6,256,25.6S486.4,128.956,486.4,256S383.044,486.4,256,486.4z"/>
	<path style="fill:#573A32;" d="M371.2,243.2H268.8v-128c0-7.074-5.726-12.8-12.8-12.8c-7.074,0-12.8,5.726-12.8,12.8V256
		c0,7.074,5.726,12.8,12.8,12.8h115.2c7.074,0,12.8-5.726,12.8-12.8C384,248.926,378.274,243.2,371.2,243.2z"/>
	<rect x="243.2" y="51.2" style="fill:#573A32;" width="25.6" height="25.6"/>
	<rect x="243.2" y="435.2" style="fill:#573A32;" width="25.6" height="25.6"/>
	<rect x="51.2" y="243.2" style="fill:#573A32;" width="25.6" height="25.6"/>
	<rect x="435.2" y="243.2" style="fill:#573A32;" width="25.6" height="25.6"/>
</g>
<g>
</g>
<g>
</g>
<g>
</g>
<g>
</g>
<g>
</g>
<g>
</g>
<g>
</g>
<g>
</g>
<g>
</g>
<g>
</g>
<g>
</g>
<g>
</g>
<g>
</g>
<g>
</g>
<g>
</g>
</svg>
